<?xml version="1.0" encoding="UTF-8"?><svg id="Livello_1" xmlns="http://www.w3.org/2000/svg" xmlns:xlink="http://www.w3.org/1999/xlink" viewBox="0 0 81.5 23.45"><defs><style>.cls-1{fill:url(#linear-gradient);}</style><linearGradient id="linear-gradient" x1="16.95" y1="18.44" x2="57.96" y2="18.44" gradientTransform="matrix(1, 0, 0, 1, 0, 0)" gradientUnits="userSpaceOnUse"><stop offset="0" stop-color="#000"/><stop offset=".09" stop-color="#080808"/><stop offset=".22" stop-color="#1f1f1f"/><stop offset=".39" stop-color="#454545"/><stop offset=".58" stop-color="#797979"/><stop offset=".8" stop-color="#bbb"/><stop offset="1" stop-color="#fff"/></linearGradient></defs><g><path d="M46.59,8.91c-.22-.07-.47-.12-.74-.15-.28-.03-.59-.04-.9-.04-.32,0-.64,.01-.96,.03-.32,.02-.63,.04-.94,.07-.3,.03-.59,.06-.85,.08,.14-.25,.28-.49,.42-.74,.14-.25,.26-.5,.37-.74,.11-.24,.2-.47,.27-.69s.12-.42,.14-.61c.02-.21,0-.37-.06-.49-.06-.11-.14-.18-.24-.21-.1-.03-.21-.01-.33,.05-.12,.06-.22,.14-.31,.27-.13,.16-.26,.36-.38,.59s-.25,.49-.37,.77c-.12,.28-.24,.58-.36,.91-.12,.32-.23,.66-.33,1.01-.44,.05-.87,.08-1.31,.11-.43,.03-.87,.03-1.3,0-.13,0-.25-.02-.38-.03-.13-.01-.26-.03-.4-.05-.06-.11-.13-.18-.19-.19-.06-.02-.11,0-.15,.03-.03,.04-.05,.09-.04,.15,0,.06,.05,.11,.13,.15,.13,.03,.28,.06,.48,.08,.19,.02,.41,.04,.65,.05,.42,.02,.83,.03,1.23,.02s.8-.03,1.2-.05c-.15,.52-.29,1.05-.41,1.6-.06,.25-.1,.49-.14,.74h0c-.08,.1-.17,.21-.29,.33-.11,.12-.24,.24-.37,.36-.13,.12-.27,.24-.42,.36-.15,.11-.29,.21-.44,.3-.15,.08-.28,.15-.41,.19s-.25,.05-.35,.03c-.13-.03-.22-.09-.27-.17s-.07-.17-.06-.28c0-.11,.02-.23,.05-.36,.03-.13,.07-.25,.1-.37,.03-.12,.05-.23,.06-.34,0-.11-.01-.19-.06-.26-.06-.09-.14-.13-.23-.13-.09,0-.18,.05-.28,.12-.1,.08-.21,.18-.32,.31-.11,.13-.22,.27-.32,.42-.11,.15-.21,.31-.3,.46-.09,.16-.18,.3-.26,.43-.08,.13-.14,.24-.19,.33-.05,.09-.08,.14-.09,.16-.02,.03-.04,.04-.05,.04-.01,0-.02,0-.02-.02,0-.01,0-.03,0-.05v-.04c0-.15,.05-.33,.12-.55s.16-.45,.25-.68c.09-.23,.18-.46,.28-.67,.09-.21,.16-.39,.19-.51,.02-.07,.02-.13-.01-.18-.03-.05-.08-.09-.14-.11-.06-.02-.13-.02-.21,0-.08,.02-.15,.08-.22,.16-.09,.11-.18,.26-.27,.47-.04,.08-.06,.18-.09,.27h0s-.09,.1-.19,.19c-.1,.09-.23,.19-.38,.31-.15,.11-.32,.23-.5,.35-.18,.12-.37,.22-.55,.3s-.37,.14-.54,.18c-.17,.03-.33,.02-.46-.04-.13-.05-.22-.13-.27-.23-.05-.1-.07-.22-.07-.34s.02-.25,.06-.37c.04-.13,.08-.24,.12-.34,.15,0,.29,0,.43-.04,.14-.03,.26-.08,.37-.13,.11-.06,.19-.12,.25-.2,.06-.08,.08-.16,.07-.24,0-.07-.04-.14-.1-.2-.06-.06-.15-.1-.27-.13-.13-.03-.25-.02-.36,.01-.12,.03-.23,.09-.33,.16-.1,.07-.2,.15-.28,.24-.09,.09-.16,.18-.22,.27-.05,.07-.09,.16-.13,.25,0,0-.02,0-.02,.02-.07,.09-.16,.19-.26,.3s-.21,.23-.32,.34c-.12,.11-.24,.23-.36,.34-.13,.11-.25,.21-.38,.29-.13,.08-.25,.15-.37,.2s-.23,.07-.34,.06c-.15-.03-.22-.15-.22-.36,0-.21,.09-.48,.24-.83,.04-.09,.02-.16-.05-.2-.07-.04-.16-.04-.27,0-.06,.03-.13,.07-.21,.13-.08,.06-.16,.13-.25,.21-.09,.08-.17,.15-.26,.23-.09,.08-.17,.15-.25,.21,.06-.17,.11-.35,.15-.55,.04-.2,.07-.38,.07-.55,0-.17-.02-.31-.07-.42s-.14-.17-.27-.17c-.15,0-.3,.05-.43,.16s-.27,.25-.4,.42c-.13,.17-.25,.36-.36,.57-.11,.21-.22,.41-.31,.6-.1,.19-.19,.37-.27,.53-.08,.16-.15,.28-.21,.35-.02,.03-.04,.04-.05,.04-.01,0-.02,0-.02-.02,0-.01,0-.03,0-.05v-.04c0-.15,.05-.33,.12-.55s.16-.45,.25-.68c.09-.23,.18-.46,.28-.67,.09-.21,.16-.39,.19-.51,.02-.07,.02-.13-.01-.18-.03-.05-.08-.09-.14-.11-.06-.02-.13-.02-.21,0-.08,.02-.15,.08-.22,.16-.09,.11-.18,.26-.27,.47-.04,.08-.06,.18-.09,.27h0c-.12,.14-.27,.29-.47,.44-.19,.15-.4,.29-.62,.41-.22,.12-.43,.21-.65,.28-.21,.06-.4,.08-.55,.04-.09-.02-.17-.06-.23-.12-.06-.06-.11-.14-.14-.25-.03-.11-.03-.24-.01-.4,.02-.16,.06-.35,.14-.57,.02-.07,.02-.13,0-.18-.03-.05-.07-.09-.13-.1-.06-.02-.13-.01-.2,0-.08,.02-.16,.07-.23,.15-.02,.02-.07,.07-.14,.14-.07,.07-.15,.16-.24,.25-.09,.1-.19,.19-.29,.3-.1,.1-.2,.2-.29,.28-.09,.08-.17,.14-.24,.18-.07,.04-.11,.05-.13,.03-.02-.03-.03-.07-.03-.13,0-.05,0-.11,.02-.17,.01-.06,.03-.11,.05-.17,.02-.05,.04-.09,.05-.12,.06-.15,.14-.29,.25-.43,.1-.14,.22-.27,.34-.38,.13-.11,.26-.2,.4-.26,.14-.06,.27-.09,.41-.07,.1,0,.2,.04,.29,.1,.09,.06,.17,.14,.23,.26,.03,.08,.07,.13,.13,.17,.05,.03,.1,.04,.15,.04,.05,0,.08-.03,.1-.08,.02-.04,.02-.1-.02-.17-.07-.16-.18-.27-.32-.35-.14-.08-.3-.13-.46-.15-.27-.04-.54-.02-.8,.06-.26,.08-.49,.2-.7,.36-.21,.16-.38,.36-.52,.59-.01,.02-.02,.04-.03,.06h0c-.06,.07-.14,.16-.24,.27s-.21,.24-.33,.37c-.12,.13-.25,.27-.4,.41-.14,.14-.29,.28-.44,.4-.15,.12-.3,.23-.46,.32-.15,.09-.3,.15-.44,.19-.06,.01-.13,.02-.19,.02-.07,0-.13,0-.19-.03-.06-.02-.1-.05-.14-.09-.04-.04-.05-.1-.05-.17s.02-.15,.05-.24c.04-.09,.08-.18,.13-.27,.05-.09,.1-.19,.14-.28,.05-.09,.08-.18,.09-.27,.02-.09,.01-.17-.02-.25-.03-.08-.09-.15-.19-.22-.04-.03-.1-.05-.17-.08-.07-.03-.15-.06-.22-.1-.07-.03-.14-.07-.19-.11s-.09-.08-.1-.12c0-.01,0-.03,.03-.05,.03-.02,.06-.04,.09-.06,.03-.02,.06-.05,.08-.08,.02-.03,.03-.06,.02-.1,0-.04-.02-.07-.05-.1-.03-.03-.06-.05-.1-.06-.04-.01-.09-.02-.14-.01-.05,0-.1,.02-.15,.05-.13,.08-.21,.17-.25,.28-.04,.11-.06,.21-.04,.29,0,.03,.03,.06,.05,.09h0c-.06,.07-.14,.16-.24,.27s-.21,.24-.33,.37c-.12,.13-.25,.27-.4,.41-.14,.14-.29,.28-.44,.4-.15,.12-.3,.23-.46,.32-.15,.09-.3,.15-.44,.19-.06,.01-.13,.02-.19,.02-.07,0-.13,0-.19-.03-.06-.02-.1-.05-.14-.09-.04-.04-.05-.1-.05-.17s.02-.15,.05-.24c.04-.09,.08-.18,.13-.27,.05-.09,.1-.19,.14-.28,.05-.09,.08-.18,.09-.27,.02-.09,.01-.17-.02-.25-.03-.08-.09-.15-.19-.22-.04-.03-.1-.05-.17-.08-.07-.03-.15-.06-.22-.1-.07-.03-.14-.07-.19-.11s-.09-.08-.1-.12c0-.01,0-.03,.03-.05,.03-.02,.06-.04,.09-.06,.03-.02,.06-.05,.08-.08,.02-.03,.03-.06,.02-.1,0-.04-.02-.07-.05-.1-.03-.03-.06-.05-.1-.06-.04-.01-.09-.02-.14-.01-.05,0-.1,.02-.15,.05-.13,.08-.21,.17-.25,.28-.04,.11-.06,.21-.04,.29,0,.03,.03,.06,.05,.09h0s-.09,.1-.19,.19c-.1,.09-.23,.19-.38,.31-.15,.11-.32,.23-.5,.35-.18,.12-.37,.22-.55,.3-.19,.08-.37,.14-.54,.18-.17,.03-.33,.02-.46-.04-.13-.05-.22-.13-.27-.23-.05-.1-.07-.22-.07-.34s.02-.25,.06-.37c.04-.13,.08-.24,.12-.34,.15,0,.29,0,.43-.04,.14-.03,.26-.08,.37-.13,.11-.06,.19-.12,.25-.2,.06-.08,.08-.16,.07-.24,0-.07-.04-.14-.1-.2-.06-.06-.15-.1-.27-.13-.13-.03-.25-.02-.36,.01-.12,.03-.23,.09-.33,.16s-.2,.15-.28,.24c-.09,.09-.16,.18-.22,.27-.06,.08-.09,.18-.14,.26h-.02c-.28,.07-.59,.16-.92,.27-.33,.11-.67,.24-1.01,.39-.35,.15-.7,.32-1.05,.51-.35,.19-.69,.39-1.03,.6-.16-.29-.33-.57-.54-.85-.2-.28-.41-.56-.62-.83-.21-.27-.41-.54-.6-.8-.19-.26-.35-.52-.47-.77-.11-.22-.17-.43-.18-.65-.02-.22,0-.44,.06-.65,.06-.22,.14-.43,.26-.63,.11-.21,.25-.41,.4-.6,.15-.19,.32-.37,.5-.54,.18-.17,.36-.32,.55-.46,.3-.22,.62-.43,.94-.61,.32-.18,.64-.32,.96-.43,.31-.1,.61-.16,.9-.18s.55,.02,.77,.12c.23,.1,.42,.26,.56,.46s.23,.44,.29,.69c.05,.26,.06,.53,.03,.81s-.09,.55-.19,.8c-.1,.25-.23,.48-.4,.68-.17,.2-.36,.34-.58,.43-.14,.06-.23,.14-.26,.25-.03,.11-.02,.2,.03,.28,.05,.08,.14,.13,.25,.14,.12,.01,.25-.05,.4-.18,.18-.16,.34-.36,.49-.59,.14-.24,.26-.49,.35-.76,.09-.27,.15-.55,.19-.84,.03-.29,.03-.57,0-.84-.03-.27-.1-.52-.21-.76-.11-.23-.25-.43-.44-.59-.25-.22-.56-.36-.92-.42s-.74-.06-1.14,0c-.4,.06-.81,.19-1.23,.36s-.81,.4-1.19,.66c-.33,.23-.64,.5-.93,.81-.29,.3-.52,.63-.7,.98-.18,.35-.28,.72-.32,1.1-.03,.38,.04,.77,.22,1.16,.13,.29,.31,.58,.54,.86,.23,.28,.46,.56,.71,.84,.24,.28,.48,.56,.71,.84,.23,.28,.42,.57,.57,.87-.52,.35-.98,.71-1.4,1.11-.41,.39-.73,.79-.94,1.2-.12,.22-.19,.45-.23,.69-.03,.24-.02,.45,.05,.63,.07,.18,.19,.31,.38,.39,.19,.08,.44,.06,.76-.04,.15-.05,.31-.11,.47-.2s.32-.18,.47-.3c.15-.11,.29-.24,.43-.39,.13-.14,.25-.31,.35-.48,.13-.21,.22-.42,.28-.63,.06-.21,.09-.42,.08-.62s-.03-.41-.08-.61c-.05-.2-.12-.4-.21-.6,.33-.21,.67-.41,1.01-.6,.35-.19,.69-.36,1.03-.52,.34-.16,.67-.29,.99-.41,.24-.09,.46-.15,.68-.22-.06,.17-.09,.33-.09,.49,0,.17,.06,.33,.16,.47,.1,.14,.27,.24,.5,.29,.18,.04,.37,.05,.57,.02,.2-.02,.4-.07,.6-.13,.2-.06,.4-.15,.6-.25,.2-.1,.38-.21,.56-.33,.17-.12,.34-.24,.48-.37,.13-.12,.24-.23,.34-.33,.04,.03,.08,.07,.13,.09,.08,.04,.17,.07,.26,.09s.18,.02,.27,0c-.07,.1-.14,.21-.2,.34-.06,.13-.11,.27-.14,.41-.03,.14-.04,.29-.03,.43,.01,.14,.06,.27,.14,.39,.11,.14,.24,.23,.4,.27,.16,.04,.31,.05,.47,.02,.17-.03,.35-.09,.52-.18,.18-.09,.35-.2,.52-.33,.17-.13,.33-.26,.49-.41,.16-.15,.3-.29,.44-.43,.13-.14,.25-.28,.36-.4,.09-.11,.16-.2,.22-.27,.04,.03,.07,.06,.11,.08,.08,.04,.17,.07,.26,.09s.18,.02,.27,0c-.07,.1-.14,.21-.2,.34-.06,.13-.11,.27-.14,.41-.03,.14-.04,.29-.03,.43,.01,.14,.06,.27,.14,.39,.11,.14,.24,.23,.4,.27,.16,.04,.31,.05,.47,.02,.17-.03,.35-.09,.52-.18,.18-.09,.35-.2,.52-.33,.17-.13,.33-.26,.49-.41,.16-.15,.3-.29,.44-.43,.07-.07,.12-.13,.18-.2h0c-.02,.15,0,.28,.02,.4,.03,.13,.1,.21,.2,.27,.12,.06,.24,.07,.36,.04,.12-.03,.24-.1,.36-.18s.23-.19,.35-.32,.22-.25,.31-.37c.09-.12,.18-.23,.26-.33,.08-.1,.14-.17,.18-.21-.09,.18-.14,.35-.16,.52-.01,.17,0,.32,.07,.45,.06,.13,.15,.24,.28,.33,.13,.09,.29,.14,.49,.16,.24,.03,.48,0,.73-.06,.25-.06,.49-.16,.72-.28,.23-.12,.45-.26,.65-.43,.06-.05,.1-.1,.16-.15-.05,.19-.09,.38-.11,.57-.03,.23-.04,.43-.02,.6,0,.06,.01,.13,.03,.19,.01,.07,.03,.13,.06,.19,.03,.06,.06,.11,.11,.15,.04,.04,.1,.06,.17,.06s.14-.03,.21-.1,.13-.15,.19-.26c.06-.1,.12-.22,.17-.34,.05-.12,.1-.23,.15-.34,0-.01,.04-.07,.08-.16s.11-.21,.18-.34c.07-.13,.15-.27,.24-.42,.09-.15,.18-.28,.27-.4,.09-.12,.17-.21,.25-.28,.08-.07,.15-.1,.21-.07,.06,.04,.07,.14,.05,.28-.02,.14-.07,.32-.15,.51-.08,.2-.17,.4-.28,.62-.11,.22-.23,.43-.36,.62-.07,.12-.08,.2,0,.26,.07,.06,.18,.06,.33,0,.12-.07,.21-.15,.28-.22,.06-.08,.14-.15,.23-.23,.09-.08,.18-.16,.27-.24,.09-.08,.18-.15,.26-.2s.14-.1,.19-.13c.05-.03,.07-.04,.06-.02-.06,.13-.09,.24-.1,.35-.01,.11,0,.21,.04,.29,.04,.09,.1,.16,.19,.21,.09,.06,.21,.09,.35,.1,.23,.01,.46-.03,.69-.14,.22-.11,.44-.24,.64-.4,.2-.16,.39-.34,.57-.54,.02-.02,.03-.04,.05-.06,0,.05-.02,.11-.01,.16,0,.17,.06,.33,.16,.47,.1,.14,.27,.24,.5,.29,.18,.04,.37,.05,.57,.02,.2-.02,.4-.07,.6-.13,.2-.06,.4-.15,.6-.25,.2-.1,.38-.21,.56-.33,.17-.12,.34-.24,.48-.37,.01,0,.02-.02,.03-.03-.05,.2-.09,.39-.12,.59-.03,.23-.04,.43-.02,.6,0,.06,.01,.13,.03,.19,.01,.07,.03,.13,.06,.19,.03,.06,.06,.11,.11,.15,.04,.04,.1,.06,.17,.06,.06,0,.11-.02,.16-.06,.05-.04,.1-.09,.15-.15,.03-.06,.08-.14,.15-.26,.07-.12,.15-.25,.23-.39,.08-.14,.17-.29,.27-.43,.09-.15,.18-.28,.26-.4,.08-.12,.15-.21,.2-.28s.09-.1,.09-.08c0,0,0,.03,0,.05,0,.03-.01,.05-.02,.08-.05,.16-.08,.32-.09,.48s.02,.32,.06,.46c.05,.14,.13,.25,.24,.35s.25,.15,.43,.17c.24,.03,.48-.01,.73-.12,.25-.11,.49-.24,.72-.41,.23-.17,.45-.36,.65-.56,.09-.09,.14-.16,.22-.24-.02,.12-.05,.25-.07,.37-.09,.52-.15,1.01-.19,1.48-.04,.47-.06,.88-.05,1.25,0,.35,.05,.66,.12,.92,.07,.26,.18,.46,.31,.6,.1,.09,.19,.14,.28,.15,.09,0,.16,0,.21-.04,.05-.03,.08-.08,.07-.14,0-.06-.04-.11-.12-.16-.22-.13-.38-.3-.49-.52-.1-.22-.16-.5-.17-.85,0-.22,0-.47,.03-.74,.03-.27,.07-.55,.13-.85,.05-.29,.12-.59,.19-.89,.07-.3,.15-.59,.23-.87s.17-.54,.25-.79c.08-.25,.16-.46,.24-.65,.11-.17,.23-.36,.36-.56,.13-.2,.26-.41,.4-.63,.02,0,.03,0,.05,0,.27-.03,.57-.07,.9-.12,.33-.05,.66-.09,.99-.12,.33-.03,.66-.06,.98-.07,.32-.01,.6,0,.86,.02,.23,.03,.43,.07,.6,.15,.17,.07,.28,.18,.34,.31,.04,.1,.1,.15,.17,.17,.07,.02,.13,0,.19-.03,.06-.03,.09-.08,.11-.14,.02-.06,0-.11-.06-.16-.15-.12-.34-.21-.56-.28Zm-13.34,2.19c.05-.07,.1-.13,.14-.16,.04-.03,.07-.05,.09-.05,.02,0,.04,.02,.05,.04,.02,.04,.02,.09,0,.15-.02,.06-.06,.11-.1,.16-.05,.05-.1,.09-.17,.12-.06,.03-.13,.04-.19,.04,.07-.13,.13-.23,.18-.3Zm-21.5,0c.05-.07,.1-.13,.14-.16,.04-.03,.07-.05,.09-.05,.02,0,.04,.02,.05,.04,.02,.04,.02,.09,0,.15-.02,.06-.06,.11-.1,.16-.05,.05-.1,.09-.17,.12-.06,.03-.13,.04-.19,.04,.07-.13,.13-.23,.18-.3Zm-5.33,4.85c-.17,.26-.36,.48-.59,.68-.22,.19-.43,.34-.63,.46-.25,.14-.45,.21-.6,.19s-.25-.08-.31-.2c-.06-.11-.07-.26-.05-.44,.03-.18,.09-.36,.19-.53,.1-.19,.23-.37,.39-.56,.16-.19,.33-.38,.53-.56s.41-.37,.64-.55c.23-.18,.47-.36,.73-.53,.11,.31,.15,.64,.11,.97-.03,.34-.17,.7-.42,1.08Zm35.07-6.39l.04-.16c.01-.05,.03-.1,.05-.16,.02,0,.03,0,.05,0,.02,0,.03,0,.05,0l-.19,.32Zm.35-.61l-.19,.02c.1-.35,.22-.69,.35-1.01,.13-.33,.26-.62,.41-.9,.13-.24,.24-.42,.34-.54,.09-.13,.16-.19,.2-.18,.04,0,.04,.07,.02,.2s-.1,.33-.22,.61c-.12,.29-.25,.59-.41,.9-.16,.31-.32,.61-.49,.91Z"/><path d="M45.52,11.51c-.05,.02-.1,.06-.14,.12-.12,.14-.27,.28-.47,.43-.19,.15-.4,.29-.62,.41-.22,.12-.43,.21-.65,.28-.21,.06-.4,.08-.55,.04-.09-.02-.17-.06-.23-.12-.06-.06-.11-.14-.14-.25s-.03-.24-.01-.4c.02-.16,.06-.35,.14-.57,.02-.07,.02-.13,0-.18-.03-.05-.07-.09-.13-.1-.06-.02-.13-.01-.2,0-.08,.02-.16,.07-.23,.15-.09,.18-.14,.36-.15,.56s.01,.38,.07,.54c.06,.17,.16,.31,.29,.43,.13,.12,.29,.19,.49,.2,.24,.03,.48,0,.73-.06,.25-.06,.49-.16,.72-.28,.23-.12,.45-.26,.65-.43,.2-.16,.37-.33,.51-.5,.06-.07,.1-.13,.1-.18,0-.05,0-.08-.04-.1-.03-.02-.07-.02-.13,0Z"/><path d="M42.85,10.79c.06-.02,.12-.07,.16-.13,.07-.15,.11-.26,.12-.35,0-.09,0-.15-.03-.18-.03-.04-.07-.05-.13-.05-.06,0-.11,.03-.17,.07-.06,.04-.11,.09-.16,.15-.05,.06-.08,.13-.1,.2-.03,.09-.02,.16,0,.21,.03,.05,.08,.08,.13,.1,.05,.01,.11,0,.18-.02Z"/><path d="M51.62,6.32c-.1-.02-.21,0-.32,.05-.12,.06-.22,.14-.32,.26-.11,.11-.23,.28-.35,.53-.12,.24-.25,.54-.38,.89-.13,.35-.26,.74-.39,1.18-.13,.44-.25,.9-.36,1.4-.16-.06-.33-.07-.49-.05-.16,.03-.31,.08-.46,.17s-.27,.19-.4,.32c-.12,.13-.23,.27-.32,.42-.09,.15-.16,.31-.21,.47-.05,.16-.08,.31-.08,.45,0,.13,.02,.26,.06,.38,.04,.12,.12,.2,.23,.25,.14,.06,.27,.05,.4,0,.13-.06,.26-.15,.38-.27,.12-.12,.23-.25,.34-.4s.2-.29,.28-.43c-.1,.59-.18,1.17-.23,1.73-.05,.56-.06,1.08-.03,1.54,.02,.35,.07,.65,.15,.91s.19,.46,.33,.59c.1,.09,.19,.13,.28,.14,.09,0,.16,0,.21-.05,.05-.04,.07-.08,.07-.14,0-.06-.04-.11-.12-.15-.22-.12-.39-.28-.5-.51-.11-.22-.17-.5-.19-.85-.02-.33-.01-.66,.02-1,.03-.34,.08-.67,.15-1,.07-.33,.15-.65,.24-.97,.09-.32,.19-.62,.3-.9,.13-.2,.26-.42,.4-.65,.14-.24,.29-.48,.43-.74,.14-.26,.28-.52,.42-.78,.14-.26,.26-.52,.37-.77s.2-.5,.27-.73,.12-.44,.13-.63c.02-.21,0-.37-.06-.48-.06-.11-.14-.17-.24-.19Zm-2.54,5.23c-.13,.21-.25,.39-.36,.55-.11,.16-.21,.27-.29,.35-.08,.08-.14,.1-.17,.07-.02-.03-.03-.07-.04-.13,0-.05,0-.11,0-.17,0-.06,.02-.11,.03-.17,.01-.05,.03-.1,.04-.13,.03-.09,.08-.21,.16-.36,.07-.15,.16-.28,.27-.4,.1-.12,.22-.22,.34-.29,.12-.07,.24-.07,.37,0-.1,.23-.22,.45-.35,.66Zm2.4-4.16c-.03,.13-.09,.34-.2,.62-.08,.19-.16,.4-.26,.61s-.2,.42-.3,.63c-.11,.21-.21,.42-.32,.62s-.22,.4-.32,.59c.11-.45,.23-.89,.38-1.34,.14-.44,.3-.84,.49-1.19,.13-.25,.23-.43,.33-.56,.09-.13,.16-.19,.2-.18,.04,0,.05,.07,.02,.2Z"/><path d="M52.78,7.18c-.06,.02-.12,.05-.17,.1-.05,.05-.1,.1-.14,.16-.04,.06-.06,.13-.06,.19,0,.06,.01,.12,.05,.17,.04,.05,.11,.08,.21,.1-.1,.11-.21,.19-.33,.25-.03,.15-.03,.23,.01,.26,.04,.02,.1,0,.17-.04,.07-.05,.15-.13,.24-.24,.09-.11,.16-.22,.21-.34,.06-.12,.09-.24,.09-.35,0-.11-.04-.19-.13-.25-.05-.02-.1-.02-.16,0Z"/><path d="M64.57,9.19c.27-.03,.57-.07,.9-.12,.33-.05,.66-.09,.99-.12,.33-.03,.66-.06,.97-.07,.32-.01,.6,0,.86,.02,.23,.03,.43,.07,.6,.15,.17,.07,.28,.18,.34,.31,.04,.1,.1,.15,.17,.17,.07,.02,.13,0,.19-.03,.06-.03,.09-.08,.11-.14,.02-.06,0-.11-.05-.16-.15-.12-.34-.21-.56-.28-.22-.07-.47-.12-.75-.15-.28-.03-.59-.04-.9-.04-.32,0-.64,.01-.96,.03-.32,.02-.63,.04-.94,.07-.3,.03-.59,.06-.85,.08,.14-.25,.28-.49,.42-.74,.14-.25,.26-.5,.37-.74,.11-.24,.2-.47,.27-.69,.07-.22,.12-.42,.14-.61,.02-.21,0-.37-.06-.49-.06-.11-.14-.18-.24-.21-.1-.03-.21-.01-.33,.05-.12,.06-.22,.14-.31,.27-.13,.16-.26,.36-.38,.59-.13,.23-.25,.49-.37,.77-.12,.28-.24,.58-.36,.91-.12,.32-.23,.66-.33,1.01-.44,.05-.87,.08-1.31,.11-.43,.03-.87,.03-1.3,0-.12,0-.25-.02-.38-.03-.13-.01-.26-.03-.4-.05-.06-.11-.13-.18-.19-.19s-.11,0-.15,.03c-.03,.04-.05,.09-.04,.15,0,.06,.05,.11,.13,.15,.13,.03,.28,.06,.48,.08,.19,.02,.41,.04,.65,.05,.42,.02,.83,.03,1.23,.02s.8-.03,1.2-.05c-.15,.52-.29,1.05-.41,1.6-.06,.25-.1,.49-.14,.74h0c-.07,.1-.16,.2-.26,.31-.1,.11-.21,.23-.32,.34-.12,.11-.24,.23-.36,.34-.13,.11-.25,.21-.38,.29-.13,.08-.25,.15-.37,.2s-.23,.07-.34,.06c-.15-.03-.23-.16-.23-.37s.08-.48,.25-.83c.03-.07,.04-.14,.02-.2-.02-.06-.06-.11-.12-.14-.06-.03-.13-.05-.2-.04-.08,0-.15,.04-.23,.1-.03,.03-.07,.09-.15,.2-.07,.11-.15,.23-.25,.37-.09,.14-.19,.28-.29,.41-.1,.14-.2,.25-.3,.32-.03,.03-.07,.06-.11,.08-.04,.02-.08,.04-.11,.04s-.05-.01-.07-.04c-.02-.03-.02-.08,0-.15,.02-.1,.06-.23,.12-.39,.06-.16,.13-.32,.2-.49,.07-.16,.14-.32,.2-.47,.06-.15,.1-.26,.12-.33,.03-.11,.02-.2,0-.27-.03-.07-.07-.13-.13-.16-.06-.03-.12-.03-.2,0-.07,.02-.14,.08-.21,.17-.04,.06-.09,.14-.14,.24-.05,.1-.1,.21-.16,.33-.01,.03-.03,.07-.04,.1-.12,.14-.27,.28-.46,.42-.19,.15-.4,.29-.62,.41-.22,.12-.43,.21-.65,.28-.21,.06-.4,.08-.55,.04-.09-.02-.17-.06-.23-.12-.06-.06-.11-.14-.14-.25-.03-.11-.03-.24-.01-.4,.02-.16,.06-.35,.14-.57,.02-.07,.02-.13,0-.18-.03-.05-.07-.09-.13-.1-.06-.02-.13-.01-.2,0-.08,.02-.16,.07-.23,.15-.02,.02-.07,.07-.14,.14s-.15,.16-.24,.25c-.09,.1-.19,.19-.29,.3-.1,.1-.2,.2-.29,.28-.09,.08-.17,.14-.24,.18s-.11,.05-.13,.03c-.02-.03-.03-.07-.03-.13,0-.05,0-.11,.02-.17,.01-.06,.03-.11,.05-.17,.02-.05,.04-.09,.05-.12,.06-.15,.14-.29,.25-.43,.1-.14,.22-.27,.34-.38,.13-.11,.26-.2,.4-.26,.14-.06,.27-.09,.41-.07,.1,0,.2,.04,.29,.1,.09,.06,.17,.14,.23,.26,.03,.08,.07,.13,.13,.17,.05,.03,.1,.04,.15,.04,.05,0,.08-.03,.1-.08,.02-.04,.02-.1-.02-.17-.07-.16-.18-.27-.32-.35-.14-.08-.3-.13-.46-.15-.27-.04-.54-.02-.8,.06-.26,.08-.49,.2-.7,.36-.21,.16-.38,.36-.52,.59-.14,.23-.23,.48-.26,.74-.02,.13,0,.26,.02,.39,.03,.13,.1,.21,.2,.27,.12,.06,.24,.07,.36,.04,.12-.03,.24-.1,.36-.18,.12-.09,.23-.19,.35-.32s.22-.25,.31-.37c.09-.12,.18-.23,.26-.33,.08-.1,.14-.17,.18-.21-.09,.18-.14,.35-.16,.52-.01,.17,0,.32,.07,.45,.06,.13,.15,.24,.28,.33,.13,.09,.29,.14,.49,.16,.24,.03,.48,0,.73-.06,.25-.06,.49-.16,.72-.28,.23-.12,.45-.26,.65-.43,.04-.04,.07-.07,.11-.11-.02,.06-.04,.11-.05,.17-.02,.08-.03,.16-.04,.25,0,.09,0,.18,0,.27,.02,.09,.04,.17,.09,.24,.04,.07,.11,.13,.2,.17,.13,.06,.26,.08,.38,.05,.13-.03,.24-.09,.36-.18,.11-.09,.22-.2,.33-.32,.11-.13,.21-.25,.31-.38-.06,.13-.09,.24-.1,.35-.01,.11,0,.21,.04,.29,.04,.09,.1,.16,.19,.21,.09,.06,.21,.09,.35,.1,.23,.01,.46-.03,.69-.14,.22-.11,.44-.24,.64-.4,.2-.16,.39-.34,.57-.54,.07-.07,.11-.13,.18-.2-.02,.11-.05,.24-.07,.35-.09,.52-.15,1.01-.19,1.48-.04,.47-.06,.88-.05,1.25,0,.35,.05,.66,.12,.92,.07,.26,.18,.46,.31,.6,.1,.09,.19,.14,.28,.15,.09,0,.16,0,.21-.04,.05-.03,.08-.08,.07-.14,0-.06-.04-.11-.12-.16-.22-.13-.38-.3-.49-.52s-.16-.5-.17-.85c0-.22,0-.47,.03-.74,.03-.27,.07-.55,.13-.85,.05-.29,.12-.59,.19-.89,.07-.3,.15-.59,.23-.87s.17-.54,.25-.79c.08-.25,.16-.46,.24-.65,.11-.17,.23-.36,.36-.56,.13-.2,.26-.41,.4-.63,.02,0,.03,0,.05,0Zm-.6,.36c.01-.05,.03-.1,.04-.16,.01-.05,.03-.1,.05-.16,.02,0,.03,0,.05,0,.02,0,.03,0,.05,0l-.19,.32Zm.16-.59c.1-.35,.22-.69,.35-1.01s.26-.62,.41-.9c.13-.24,.24-.42,.34-.54,.09-.13,.16-.19,.2-.18,.04,0,.04,.07,.02,.2s-.1,.33-.22,.61c-.12,.29-.25,.59-.41,.9-.16,.31-.32,.61-.49,.91l-.19,.02Z"/><path d="M75.24,11.5s-.07-.01-.12,0-.1,.06-.15,.12c-.03,.03-.09,.1-.19,.19-.1,.09-.23,.19-.38,.31-.15,.11-.32,.23-.5,.35-.18,.12-.37,.22-.55,.3-.19,.08-.37,.14-.54,.18-.17,.03-.33,.02-.46-.04-.13-.05-.22-.13-.27-.23-.05-.1-.07-.22-.07-.34s.02-.25,.06-.37c.04-.13,.08-.24,.12-.34,.15,0,.29,0,.43-.04,.14-.03,.26-.08,.37-.13,.11-.06,.19-.12,.25-.2,.06-.08,.08-.16,.07-.24,0-.07-.04-.14-.1-.2-.06-.06-.15-.1-.27-.13-.13-.03-.25-.02-.36,.01-.12,.03-.23,.09-.33,.16s-.2,.15-.28,.24c-.09,.09-.16,.18-.22,.27-.05,.08-.09,.17-.13,.25,0,0-.01,0-.02,.01-.06,.06-.14,.15-.24,.27-.1,.11-.21,.24-.33,.37-.12,.13-.25,.27-.4,.41-.14,.14-.29,.28-.44,.4s-.3,.23-.46,.32c-.15,.09-.3,.15-.44,.19-.06,.01-.13,.02-.19,.02-.07,0-.13,0-.19-.03-.06-.02-.1-.05-.14-.09-.04-.04-.06-.1-.06-.17s.02-.15,.06-.24c.04-.09,.08-.18,.13-.27,.05-.09,.1-.19,.14-.28,.05-.09,.08-.18,.09-.27,.02-.09,.01-.17-.02-.25-.03-.08-.09-.15-.19-.22-.04-.03-.1-.05-.18-.08-.07-.03-.15-.06-.22-.1-.07-.03-.14-.07-.19-.11s-.09-.08-.1-.12c0-.01,0-.03,.03-.05s.05-.04,.09-.06c.03-.02,.06-.05,.08-.08,.02-.03,.03-.06,.02-.1,0-.04-.02-.07-.05-.1-.03-.03-.06-.05-.1-.06-.04-.01-.09-.02-.14-.01-.05,0-.1,.02-.15,.05-.13,.08-.21,.17-.25,.28-.04,.11-.06,.21-.04,.29,0,.03,.03,.06,.05,.09h0c-.13,.04-.28,.06-.44,.09-.16,.02-.32,.04-.48,.05-.16,0-.33,.01-.49,0-.16,0-.31-.01-.45-.04-.03-.13-.07-.22-.13-.27-.06-.05-.11-.08-.17-.07-.06,0-.11,.03-.15,.07-.04,.04-.07,.1-.07,.16s.02,.12,.07,.18c.05,.06,.14,.12,.28,.16,0,.05-.02,.12-.04,.2-.02,.08-.05,.17-.09,.27s-.08,.19-.13,.28c-.05,.09-.11,.16-.16,.22-.09,.09-.17,.12-.23,.1-.06-.02-.1-.09-.11-.2,0-.09,0-.2,.02-.34,.02-.13,.04-.27,.08-.41,.04-.14,.09-.28,.15-.41,.06-.13,.13-.24,.22-.33,.08-.09,.18-.15,.28-.17,.1-.03,.22,0,.35,.05,.06,.04,.11,.06,.17,.05,.06,0,.11-.02,.15-.05s.06-.06,.06-.11c0-.04-.02-.08-.08-.12-.2-.06-.39-.07-.58-.05-.19,.03-.37,.08-.53,.17-.16,.09-.31,.2-.44,.34-.13,.14-.24,.29-.32,.46-.04,.09-.08,.19-.11,.29s-.05,.21-.06,.32c-.01,.11-.01,.21,0,.32,.01,.11,.04,.2,.08,.29,.05,.1,.12,.18,.21,.23,.09,.05,.19,.07,.29,.07s.2-.02,.3-.06c.1-.04,.19-.09,.26-.16,.08-.07,.15-.16,.22-.26s.11-.21,.16-.32c.04-.11,.07-.22,.1-.33,.02-.11,.04-.21,.04-.31,.15,.02,.31,.03,.48,.04,.17,0,.34,0,.52,0,.17,0,.34-.02,.5-.05,.16-.02,.31-.05,.45-.09,.02,0,.05-.03,.07-.04,.03,.02,.05,.05,.08,.06,.08,.04,.17,.07,.26,.09,.09,.02,.18,.02,.27,0-.07,.1-.14,.21-.2,.34-.06,.13-.11,.27-.14,.41-.03,.14-.04,.29-.03,.43,.01,.14,.06,.27,.14,.39,.11,.14,.24,.23,.4,.27,.16,.04,.31,.05,.47,.02,.17-.03,.35-.09,.52-.18,.18-.09,.35-.2,.52-.33,.17-.13,.33-.26,.49-.41,.16-.15,.3-.29,.44-.43,.07-.07,.12-.14,.18-.2,0,.05-.01,.1-.01,.14,0,.17,.06,.33,.16,.47,.1,.14,.27,.24,.5,.29,.18,.04,.37,.05,.57,.02,.2-.02,.4-.07,.6-.13,.2-.06,.4-.15,.6-.25,.2-.1,.38-.21,.56-.33,.17-.12,.34-.24,.48-.37,.15-.13,.27-.25,.37-.37,.07-.07,.11-.13,.11-.18,0-.05,0-.08-.04-.1Zm-2.77-.4c.05-.07,.1-.13,.14-.16,.04-.03,.07-.05,.09-.05,.02,0,.04,.02,.05,.04,.02,.04,.02,.09,0,.15-.02,.06-.06,.11-.1,.16-.05,.05-.1,.09-.17,.12-.06,.03-.13,.04-.19,.04,.07-.13,.13-.23,.18-.3Z"/></g><path class="cls-1" d="M57.95,18.82c-6.83-.35-13.66-.73-20.5-.86-6.84-.13-13.68,.01-20.51,.22-.14,0-.1,.16,.02,.16,6.83-.21,13.67-.36,20.51-.22,6.84,.13,13.67,.51,20.5,.86,.14,0,.09-.15-.02-.16Z"/></svg>